Simulation
nRows=15
nColumns=15
endheader
time  TH_x TH_y TH_z SC_y  SC_z  SC_x  AC_y  AC_z  AC_x  GH_y  GH_z  GH_yy  EL_x  PS_y
0.0  0.000000  0.000000  0.000000  -20.696164362432857  6.940444672409836  16.077963171953062  56.45322733214296  11.701796691332682  3.515944932478812  40.60031833315832  59.24629222519636  -42.596700628263065  21.382489125993484  120.000000
0.04052287581699346  0.000000  0.000000  0.000000  -20.65517145204668  6.94748369366288  16.13304676278873  56.33914505044756  12.239311509967955  4.0176740423928345  40.019220317383876  59.685220806919965  -43.71656082938085  23.41993681900321  120.000000
0.08104575163398692  0.000000  0.000000  0.000000  -20.573958831671654  6.857030623758705  15.787545670700121  56.336022682632674  12.590068235018805  4.242986640913996  39.56986229447744  59.73150430695478  -44.81456173385374  25.26039566170243  120.000000
0.12156862745098038  0.000000  0.000000  0.000000  -20.441067394056233  6.6642169347689615  15.216755047464181  56.38030495321036  12.892304555493011  4.297618286017198  39.24577359617012  59.50251885444447  -45.837673490637485  26.82753091860332  120.000000
0.16209150326797384  0.000000  0.000000  0.000000  -20.294140262595867  6.404874959532602  14.543187755863485  56.44003704551069  13.203530359141354  4.268416662539251  39.052729073426754  59.107756767412255  -46.751807135165315  28.097347539453448  120.000000
0.2026143790849673  0.000000  0.000000  0.000000  -20.149138889663558  6.119524809551606  13.853383255224806  56.48828934741827  13.54532909650834  4.216771784849872  38.972000198872145  58.64620628839689  -47.53593232259695  29.073082149985776  120.000000
0.24313725490196075  0.000000  0.000000  0.000000  -20.024787534241515  5.853764740044037  13.197488568101026  56.51106672256793  13.909342229465143  4.186687090112226  38.97971587060382  58.196278872218684  -48.17838252179698  29.777531215591832  120.000000
0.28366013071895424  0.000000  0.000000  0.000000  -19.9274591983735  5.634328592714369  12.600786571472007  56.50354656741665  14.277864401225013  4.197433131166504  39.045921921575584  57.81060175075919  -48.67145358313485  30.238910220573665  120.000000
0.32418300653594767  0.000000  0.000000  0.000000  -19.852491019321747  5.474309404380569  12.074713778392505  56.465373352075424  14.631644595168892  4.253372013465649  39.14203389162574  57.515487079927865  -49.00917713151156  30.481185467820197  120.000000
0.3647058823529411  0.000000  0.000000  0.000000  -19.792114570294117  5.374477071779216  11.622774542460029  56.400851890622405  14.956431789658645  4.349753325950846  39.24547266795945  57.3191301647757  -49.1860877992478  30.524835810348073  120.000000
0.4052287581699346  0.000000  0.000000  0.000000  -19.73775201476863  5.328296777783696  11.245643223814717  56.31531309419473  15.244511566356982  4.477882286287255  39.33942715607186  57.2182214010069  -49.197644770218105  30.38892367005391  120.000000
0.4457516339869281  0.000000  0.000000  0.000000  -19.683746434024435  5.327130624172288  10.943995598891588  56.214205093217586  15.493295513055092  4.629371583962147  39.41236948124756  57.20423018049035  -49.03952638209853  30.090693676320846  120.000000
0.4862745098039215  0.000000  0.000000  0.000000  -19.62792697246055  5.362347550034312  10.719526157321855  56.102684744052  15.703567452093916  4.797243091475616  39.45625842463515  57.26774174097561  -48.70861487929616  29.647744091132285  120.000000
0.5267973856209149  0.000000  0.000000  0.000000  -19.571412559873448  5.426856912217764  10.575136255222173  55.98573122628319  15.877522162085778  4.9770010994759595  39.46532280554559  57.400720932602624  -48.2026854898912  29.0778478285993  120.000000
0.5673202614379085  0.000000  0.000000  0.000000  -19.51753366531879  5.5156620645378025  10.514441065170978  55.86836846420811  16.017453225497224  5.166512122191301  39.435234163931504  57.59754645933462  -47.52081865557408  28.39900377447416  120.000000
